<svg xmlns="http://www.w3.org/2000/svg" id="Threa_full_terroirs" data-name="Threa full terroirs" width="109" height="197.904" viewBox="0 0 109 197.904"><path id="Trac&#xE9;_32" data-name="Trac&#xE9; 32" d="M19.507,173.206l-.327.154c-.6.288-.634.385-1.019,1.327l-1.242,3.1c-.692,1.73-1.427,3.772-1.561,4.157l-.173.154H13.8l-.173-.154c-.1-.288-.769-2.446-1.461-4.272l-1.154-3.038c-.269-.711-.308-.961-.865-1.231l-.4-.192v-.423h4.345v.423l-.5.173c-.385.135-.615.288-.615.5a13.963,13.963,0,0,0,.711,2.442l1.154,3.307c.077.231.135.4.231.4s.154-.038.25-.327l.673-1.942c.485-1.384,1.215-3.576,1.215-3.826,0-.192-.211-.288-.385-.365l-.927-.365v-.423h3.657l3.522-.25.115.154v7.556c0,.658,0,.927.385,1.061l1.019.365v.423H19.8v-.423l.788-.269c.538-.173.6-.365.6-1.154V174.64c0-.846,0-.927-.634-1.115Z" fill="#345951"></path><path id="Trac&#xE9;_33" data-name="Trac&#xE9; 33" d="M20.969,169.8a1.1,1.1,0,0,1,1.215-1.154,1.122,1.122,0,1,1,.019,2.234A1.083,1.083,0,0,1,20.969,169.8Z" fill="#345951"></path><path id="Trac&#xE9;_34" data-name="Trac&#xE9; 34" d="M30.99,182.092c-.058-.135-.115-.269-.173-.385a.332.332,0,0,0-.269-.211c-.25,0-.5.211-.9.423a3.742,3.742,0,0,1-1.827.423,2.457,2.457,0,0,1-2.576-2.6c0-1.961,1.923-2.519,3.038-2.807,1.25-.308,2.519-.115,2.519-.9,0-1.673-.385-2.346-1.961-2.346a3.549,3.549,0,0,0-2.307,1.134l-.308-.308,1.057-1.134a3.461,3.461,0,0,1,2.4-.846c2,0,3.076.558,3.076,3v4.518c0,.908,0,1.154.561,1.35l.769.269v.423Zm-.192-4.138c0-.442-.038-.577-.346-.577-1.865,0-3.115.308-3.115,1.846,0,1.288.6,2.119,1.692,2.119,1.75,0,1.769-.927,1.769-2.2Z" fill="#345951"></path><path id="Trac&#xE9;_35" data-name="Trac&#xE9; 35" d="M42.318,176.186c0-1.538-.269-2.6-2-2.6-1.35,0-1.773.654-1.773,1.75v4.9c0,.769,0,.984.581,1.177l.711.25v.423H35.2v-.423l.769-.269c.615-.192.615-.365.615-1.154v-5.5c0-.788,0-.884-.615-1.077l-.731-.231v-.365l3.019-.461c.1.365.173.808.442.808.465,0,1.081-.884,2.542-.884,2.25,0,3.038.865,3.038,3.345v4.364c0,.792,0,.965.615,1.154l.769.269v.423H41.049v-.423l.711-.25c.577-.211.577-.4.577-1.177Z" fill="#345951"></path><path id="Trac&#xE9;_36" data-name="Trac&#xE9; 36" d="M53.531,182.092a2.607,2.607,0,0,0-.192-.4c-.058-.115-.135-.211-.25-.211-.231,0-.461.211-.827.423a3.357,3.357,0,0,1-1.827.442c-2.484,0-3.311-1.807-3.311-4.753,0-3.538,2.076-5.057,4.464-5.057.231,0,.461.019.711.038a4.442,4.442,0,0,0,.711.058c.231,0,.288,0,.288-.461v-1.75c0-.831-.019-.9-.692-1.1l-.808-.231v-.423l3.288-.423.173.154v11.848c0,.792,0,.946.615,1.154l.769.269v.423Zm-.231-6.579c0-1.442-.308-2.115-1.961-2.115s-2.119,1.461-2.119,3.488c0,2.4.4,4.388,2.253,4.388,1.288,0,1.827,0,1.827-1.811Z" fill="#345951"></path><path id="Trac&#xE9;_37" data-name="Trac&#xE9; 37" d="M64.494,181.727a4.049,4.049,0,0,1-2.519.615c-2.753,0-4.061-1.865-4.061-5.118,0-3.057,1.961-4.691,4.426-4.691,2.6,0,3.692,1.461,3.692,3.807,0,.577-.038.673-.211.788a.769.769,0,0,1-.654.211H60.8c-.5,0-.788,0-.788.538a3.08,3.08,0,0,0,3.022,3.311,5,5,0,0,0,2.576-.831l.192.385Zm-1.046-5.253c.538,0,.634-.058.634-.558a2.364,2.364,0,0,0-2.25-2.519c-1.234,0-1.811,1.288-1.811,2.557,0,.5.25.519.808.519Z" fill="#345951"></path><path id="Trac&#xE9;_38" data-name="Trac&#xE9; 38" d="M73.035,175.513A2.31,2.31,0,0,0,70.8,173.4a1.288,1.288,0,0,0-1.423,1.211c0,1.5,2.307,1.557,3.634,2.192a2.111,2.111,0,0,1,1.442,2.346c0,2.023-1.73,3.2-3.941,3.2-1.231,0-2.865-.442-2.865-1.442a1.023,1.023,0,0,1,.154-.446l.634-1.384h.288a2.7,2.7,0,0,0,2.576,2.407,1.441,1.441,0,0,0,1.6-1.5c0-2.634-5.022-.923-5.022-4.672,0-1.827,1.7-2.769,3.426-2.769,1.442,0,2.749.538,2.749,1.154a1.254,1.254,0,0,1-.115.461l-.577,1.365Z" fill="#345951"></path><path id="Trac&#xE9;_39" data-name="Trac&#xE9; 39" d="M86.574,182.092a2.606,2.606,0,0,0-.192-.4c-.058-.115-.135-.211-.25-.211-.231,0-.461.211-.827.423a3.384,3.384,0,0,1-1.83.442c-2.48,0-3.307-1.807-3.307-4.753,0-3.538,2.076-5.057,4.461-5.057.231,0,.461.019.711.038a4.524,4.524,0,0,0,.715.058c.231,0,.288,0,.288-.461v-1.75c0-.831,0-.9-.692-1.1l-.811-.231v-.423l3.292-.423.173.154v11.848c0,.792,0,.946.615,1.154l.769.269v.423Zm-.231-6.579c0-1.442-.308-2.115-1.965-2.115s-2.115,1.461-2.115,3.5c0,2.4.385,4.388,2.25,4.388,1.292,0,1.83,0,1.83-1.811Z" fill="#345951"></path><path id="Trac&#xE9;_40" data-name="Trac&#xE9; 40" d="M97.537,181.727a4.069,4.069,0,0,1-2.523.615c-2.749,0-4.057-1.865-4.057-5.118,0-3.057,1.961-4.691,4.422-4.691,2.6,0,3.7,1.461,3.7,3.807,0,.577-.038.673-.211.788a.769.769,0,0,1-.654.212H93.826c-.5,0-.769,0-.769.538a3.08,3.08,0,0,0,3.019,3.311,5,5,0,0,0,2.58-.831l.192.385Zm-1.061-5.253c.538,0,.638-.058.638-.558a2.367,2.367,0,0,0-2.253-2.519c-1.231,0-1.807,1.288-1.807,2.557,0,.5.25.519.808.519Z" fill="#345951"></path><path id="Trac&#xE9;_41" data-name="Trac&#xE9; 41" d="M20.38,195.728c-1.1,1.538-1.442,2.157-3.638,2.157-3,0-4.057-1.869-4.057-5.022,0-3.211,2-4.787,4.537-4.787,1.811,0,3.076.654,3.076,1.461a1.061,1.061,0,0,1-.211.519l-.923,1.423h-.385c-.077-.75-.385-2.538-2.1-2.538-1.461,0-1.923,1.788-1.923,3.711,0,2.48.692,4.08,2.692,4.08a3.272,3.272,0,0,0,2.561-1.35l.25-.327.346.327Z" fill="#345951"></path><path id="Trac&#xE9;_42" data-name="Trac&#xE9; 42" d="M27.256,197.65c-.058-.135-.115-.269-.173-.385a.332.332,0,0,0-.269-.211c-.25,0-.5.211-.9.423a3.741,3.741,0,0,1-1.827.423,2.457,2.457,0,0,1-2.576-2.6c0-1.961,1.923-2.519,3.038-2.807,1.25-.308,2.519-.115,2.519-.9,0-1.673-.385-2.346-1.961-2.346a3.652,3.652,0,0,0-2.326,1.134l-.308-.308,1.057-1.134a3.461,3.461,0,0,1,2.4-.846c2,0,3.076.558,3.076,3v4.518c0,.9,0,1.154.561,1.35l.769.269v.423Zm-.192-4.138c0-.442-.038-.577-.346-.577-1.865,0-3.115.308-3.115,1.846,0,1.288.6,2.115,1.692,2.115,1.75,0,1.769-.923,1.769-2.192Z" fill="#345951"></path><path id="Trac&#xE9;_43" data-name="Trac&#xE9; 43" d="M31.466,197.212l.769-.269c.6-.192.615-.715.615-1.35v-5.307c0-.577,0-.923-.6-1.077l-.75-.173v-.423l3-.461c.115.4.192.942.461.942a2.888,2.888,0,0,0,.8-.519,2.553,2.553,0,0,1,1.307-.5c.673,0,1.307.173,1.307.75a1.084,1.084,0,0,1-.1.346l-.558,1.288h-.308a1.319,1.319,0,0,0-1.4-1c-.908,0-1.2.4-1.2,1.288v4.845c0,.6,0,1.154.615,1.35l.888.269v.438H31.466Z" fill="#345951"></path><path id="Trac&#xE9;_44" data-name="Trac&#xE9; 44" d="M44.221,197.65c-.058-.135-.115-.269-.173-.385a.332.332,0,0,0-.269-.211c-.25,0-.5.211-.9.423a3.741,3.741,0,0,1-1.827.423,2.457,2.457,0,0,1-2.58-2.6c0-1.961,1.923-2.519,3.042-2.807,1.25-.308,2.519-.115,2.519-.9,0-1.673-.385-2.346-1.961-2.346a3.663,3.663,0,0,0-2.33,1.134l-.308-.308,1.057-1.134a3.488,3.488,0,0,1,2.407-.846c2,0,3.076.558,3.076,3v4.518c0,.9,0,1.154.558,1.35l.769.269v.423Zm-.192-4.138c0-.442-.038-.577-.346-.577-1.865,0-3.119.308-3.119,1.846,0,1.288.6,2.115,1.7,2.115,1.75,0,1.769-.923,1.769-2.192Z" fill="#345951"></path><path id="Trac&#xE9;_45" data-name="Trac&#xE9; 45" d="M56.353,195.728c-1.1,1.538-1.442,2.157-3.634,2.157-3,0-4.057-1.869-4.057-5.022,0-3.211,2-4.787,4.537-4.787,1.807,0,3.076.654,3.076,1.461a1.061,1.061,0,0,1-.211.519l-.923,1.423h-.385c-.077-.75-.385-2.538-2.1-2.538-1.461,0-1.923,1.788-1.923,3.711,0,2.48.692,4.08,2.692,4.08a3.272,3.272,0,0,0,2.557-1.35l.25-.327.346.327Z" fill="#345951"></path><path id="Trac&#xE9;_46" data-name="Trac&#xE9; 46" d="M62.183,197.558a4.876,4.876,0,0,1-1.384.327c-1.615,0-2.115-.634-2.115-2.33V190c0-.519-.088-.681-.485-.769l-.961-.211v-.5l1.1-.25c.477-.108.561-.212.715-.731l.6-1.946h.6l.385,2.061c.077.442.227.55.808.634l1.584.231v.5l-1.538.269c-.638.112-.808.073-.808.981v4.441c0,1.5.538,2.115,1.961,2.115a1.235,1.235,0,0,0,.365-.073l.058.423Z" fill="#345951"></path><path id="Trac&#xE9;_47" data-name="Trac&#xE9; 47" d="M70.608,197.266a4.069,4.069,0,0,1-2.523.615c-2.749,0-4.057-1.869-4.057-5.118,0-3.057,1.961-4.691,4.422-4.691,2.6,0,3.7,1.461,3.7,3.807,0,.577-.038.673-.211.788a.769.769,0,0,1-.654.211H66.909c-.5,0-.769,0-.769.538a3.08,3.08,0,0,0,3.019,3.311,5,5,0,0,0,2.58-.831l.192.385Zm-1.061-5.253c.538,0,.638-.058.638-.558a2.367,2.367,0,0,0-2.253-2.519c-1.231,0-1.807,1.288-1.807,2.557,0,.5.25.519.808.519Z" fill="#345951"></path><path id="Trac&#xE9;_48" data-name="Trac&#xE9; 48" d="M73.492,197.212l.769-.269c.6-.192.615-.715.615-1.35v-5.307c0-.577,0-.923-.6-1.077l-.75-.173v-.423l3-.461c.115.4.192.942.461.942.135,0,.423-.25.788-.519a2.553,2.553,0,0,1,1.307-.5c.673,0,1.307.173,1.307.75a1.085,1.085,0,0,1-.1.346l-.558,1.288h-.308a1.319,1.319,0,0,0-1.4-1c-.9,0-1.192.4-1.192,1.288v4.845c0,.6,0,1.154.615,1.35l.884.269v.438H73.492Z" fill="#345951"></path><path id="Trac&#xE9;_49" data-name="Trac&#xE9; 49" d="M80.875,197.212l.769-.269c.6-.192.615-.715.615-1.35v-5.307c0-.577,0-.923-.6-1.077l-.769-.173v-.423l3-.461c.115.4.192.942.461.942.135,0,.423-.25.769-.519a2.553,2.553,0,0,1,1.307-.5c.673,0,1.307.173,1.307.75a1.085,1.085,0,0,1-.1.346l-.558,1.288h-.308a1.319,1.319,0,0,0-1.4-1c-.9,0-1.192.4-1.192,1.288v4.845c0,.6-.019,1.154.615,1.35l.884.269v.438H80.875Z" fill="#345951"></path><path id="Trac&#xE9;_50" data-name="Trac&#xE9; 50" d="M94.957,197.266a4.049,4.049,0,0,1-2.519.615c-2.749,0-4.057-1.869-4.057-5.118,0-3.057,1.961-4.691,4.422-4.691,2.6,0,3.7,1.461,3.7,3.807,0,.577-.038.673-.211.788a.769.769,0,0,1-.654.212H91.265c-.5,0-.788,0-.788.538a3.08,3.08,0,0,0,3.019,3.311,5.022,5.022,0,0,0,2.58-.831l.192.385ZM93.9,192.013c.538,0,.634-.058.634-.558a2.364,2.364,0,0,0-2.25-2.519c-1.231,0-1.807,1.288-1.807,2.557,0,.5.25.519.808.519Z" fill="#345951"></path><path id="Trac&#xE9;_51" data-name="Trac&#xE9; 51" d="M90.039,40.8,78.891,61.825H93.869L109,40.8Z" fill="#345951"></path><path id="Trac&#xE9;_52" data-name="Trac&#xE9; 52" d="M71.716,120.182V30.455H109V0H0V30.455H37.288v89.727Z" fill="#345951"></path><path id="Trac&#xE9;_53" data-name="Trac&#xE9; 53" d="M24.749,140.882c0,4.714-2.188,7.621-5.595,9.325L25.6,161.566H16.893l-5.3-9.675H8.01v9.66H0v-31.29H12.62C20.63,130.261,24.749,134.341,24.749,140.882Zm-8.1.469c0-2.723-1.68-4.068-4.388-4.068H8.01v8.183h4.3C15.078,145.465,16.65,143.881,16.65,141.351Z" fill="#345951"></path><path id="Trac&#xE9;_54" data-name="Trac&#xE9; 54" d="M28.382,130.261h8.075v11.894h8.9V130.261H53.45v31.3H45.34V149.491h-8.9v12.074H28.363Z" fill="#345951"></path><path id="Trac&#xE9;_55" data-name="Trac&#xE9; 55" d="M100.521,161.566h8.46l-10.925-31.3H88.95l-10.944,31.3h8.279l1.773-5.633H98.725ZM90.108,149.491l2.007-6.349c.327-1.034.954-3.042,1.242-4.376h.085c.288,1.334.915,3.342,1.242,4.376l2.007,6.349Z" fill="#345951"></path><path id="Trac&#xE9;_56" data-name="Trac&#xE9; 56" d="M58.561,130.261v31.3H78.787V154.5H66.528v-5.368H78.195V142.47H66.528v-5.145H79.537v-7.064Z" fill="#345951"></path></svg>