<?xml version="1.0" encoding="UTF-8"?>
<svg xmlns="http://www.w3.org/2000/svg" xmlns:xlink="http://www.w3.org/1999/xlink" width="309px" height="305px" viewBox="0 0 309 305" version="1.1">
<defs>
<clipPath id="clip1">
  <path d="M 61.800781 81.910156 L 247.199219 81.910156 L 247.199219 223.09375 L 61.800781 223.09375 Z M 61.800781 81.910156 "/>
</clipPath>
</defs>
<g id="surface1">
<path style=" stroke:none;fill-rule:nonzero;fill:rgb(19.215686%,76.862745%,55.294118%);fill-opacity:1;" d="M 20.242188 192.503906 L 23.839844 196.453125 L 22.039062 191.320312 C 21.589844 188.953125 18.441406 191.714844 20.242188 192.503906 M 24.289062 190.136719 C 25.636719 192.109375 26.988281 194.085938 26.988281 196.058594 C 26.988281 198.820312 29.6875 200.003906 31.933594 200.792969 C 28.785156 197.636719 26.984375 188.953125 24.289062 190.136719 M 197.003906 22.816406 C 204.648438 22.816406 211.847656 22.023438 219.941406 23.605469 C 239.734375 27.945312 256.375 36.625 267.621094 48.859375 L 299.105469 93.058594 C 300.453125 104.109375 303.152344 116.34375 302.703125 129.757812 C 305.851562 129.757812 305.402344 125.8125 309 125.023438 C 305.402344 132.917969 303.601562 142.78125 302.703125 154.226562 C 300.453125 147.914062 302.703125 138.441406 303.152344 133.3125 C 300.003906 137.652344 298.207031 134.496094 298.207031 132.523438 C 298.65625 129.363281 296.855469 129.757812 295.507812 128.574219 C 290.558594 124.628906 287.410156 120.289062 283.8125 113.578125 C 286.0625 108.449219 286.511719 100.953125 279.316406 97.003906 C 277.066406 95.820312 274.367188 93.847656 273.019531 90.691406 C 271.21875 86.351562 268.070312 81.21875 268.96875 74.511719 C 269.417969 72.539062 262.222656 78.851562 258.175781 76.089844 C 240.632812 65.433594 223.089844 53.203125 201.953125 42.941406 C 190.707031 42.941406 182.609375 39.390625 178.5625 35.046875 C 174.964844 31.101562 177.664062 25.972656 183.0625 25.578125 C 186.210938 25.578125 189.808594 24.789062 192.507812 26.367188 C 192.957031 24.789062 194.757812 22.816406 197.003906 22.816406 M 152.476562 13.738281 L 153.375 14.132812 C 157.875 14.921875 160.121094 20.445312 165.070312 18.472656 C 165.070312 21.238281 165.519531 24 164.621094 25.972656 C 163.269531 29.128906 159.222656 29.128906 156.074219 29.128906 C 125.9375 27.550781 108.398438 38.597656 89.957031 48.070312 C 85.007812 50.832031 79.613281 52.804688 75.5625 56.359375 C 56.222656 72.144531 35.082031 86.746094 30.136719 115.949219 L 26.085938 148.308594 C 25.636719 151.859375 21.140625 155.410156 22.039062 159.75 L 25.1875 179.089844 C 22.039062 176.324219 20.238281 179.878906 21.140625 181.457031 C 21.589844 182.640625 23.386719 186.585938 26.085938 183.035156 C 29.683594 188.953125 33.285156 200.398438 38.230469 205.527344 C 53.523438 221.3125 73.3125 235.519531 89.507812 249.726562 C 93.554688 248.9375 96.703125 248.9375 97.601562 246.570312 C 98.953125 248.9375 96.253906 251.304688 94.003906 251.699219 C 101.203125 255.648438 109.296875 259.199219 120.09375 259.988281 C 134.035156 260.777344 147.078125 262.75 159.222656 265.511719 C 165.519531 263.933594 171.816406 263.144531 178.5625 262.75 C 180.8125 262.75 182.160156 259.59375 184.859375 258.804688 L 185.308594 254.855469 C 188.007812 258.410156 187.558594 253.671875 185.761719 251.304688 C 188.910156 253.671875 189.808594 255.648438 191.15625 257.226562 C 191.15625 256.042969 194.753906 251.699219 194.757812 256.832031 L 195.65625 251.699219 C 197.003906 250.910156 197.453125 256.042969 198.804688 252.488281 C 200.152344 248.9375 202.851562 251.699219 205.550781 250.515625 C 204.652344 252.09375 205.101562 255.253906 208.25 253.277344 L 211.847656 250.515625 C 214.097656 255.253906 217.695312 253.277344 219.492188 252.488281 C 239.285156 241.441406 259.074219 228.417969 277.964844 215.394531 L 277.515625 220.523438 L 279.765625 214.210938 C 282.011719 216.183594 283.8125 214.605469 284.710938 213.421875 C 287.410156 209.476562 291.007812 205.527344 296.855469 201.976562 C 289.660156 218.945312 281.113281 232.363281 270.320312 243.414062 L 265.820312 248.148438 C 265.820312 250.910156 264.921875 254.464844 261.324219 254.855469 C 259.523438 255.253906 255.925781 254.066406 253.226562 256.433594 C 251.878906 258.015625 256.375 261.171875 252.777344 258.804688 C 249.628906 256.832031 246.480469 258.804688 242.882812 259.59375 C 240.183594 260.382812 244.679688 262.75 245.582031 264.328125 C 246.480469 265.90625 247.378906 267.484375 246.929688 269.460938 L 241.984375 264.722656 C 236.136719 267.484375 232.535156 272.617188 227.589844 276.5625 C 225.339844 278.140625 226.238281 280.902344 226.238281 283.269531 C 223.089844 283.269531 219.492188 282.480469 217.695312 284.058594 C 216.34375 285.636719 216.792969 288.007812 216.792969 290.375 C 212.296875 289.980469 211.847656 284.058594 207.800781 285.242188 C 203.75 286.035156 199.253906 286.425781 195.65625 288.402344 C 198.355469 293.136719 191.15625 290.375 192.058594 291.164062 C 185.308594 287.613281 179.464844 284.847656 172.265625 287.21875 C 156.972656 282.875 138.082031 284.847656 124.140625 286.429688 C 124.140625 284.453125 124.589844 282.480469 123.691406 282.085938 C 122.789062 284.058594 120.09375 283.269531 120.542969 283.269531 C 111.996094 278.140625 103.449219 274.984375 94.453125 270.644531 C 86.359375 271.433594 78.710938 267.878906 76.464844 265.90625 C 70.167969 260.777344 62.96875 263.539062 57.121094 262.355469 C 44.527344 259.59375 40.03125 248.148438 38.679688 240.257812 C 37.78125 236.308594 34.183594 234.730469 32.835938 235.125 C 26.988281 218.550781 17.992188 203.554688 10.792969 188.164062 C 8.996094 184.21875 9.445312 180.273438 9.445312 175.929688 C 11.695312 176.71875 13.945312 176.324219 13.492188 173.5625 C 11.246094 160.539062 5.847656 150.675781 0 141.203125 C 3.148438 127.785156 3.597656 112 10.792969 100.160156 C 17.089844 89.507812 28.785156 83.980469 36.882812 74.90625 C 39.582031 71.75 39.582031 67.40625 42.28125 64.644531 C 51.277344 56.753906 60.269531 48.464844 70.167969 41.363281 C 74.664062 38.207031 80.0625 41.363281 86.808594 40.179688 C 89.058594 33.074219 98.050781 26.761719 106.597656 28.734375 C 110.195312 29.523438 117.394531 21.238281 119.640625 20.445312 C 123.238281 19.261719 121.441406 23.605469 121.441406 26.367188 C 129.988281 20.445312 141.679688 17.289062 152.476562 13.738281 "/>
<g clip-path="url(#clip1)" clip-rule="nonzero">
<path style=" stroke:none;fill-rule:nonzero;fill:rgb(19.215686%,76.862745%,55.294118%);fill-opacity:1;" d="M 232.273438 81.910156 C 238.027344 82.863281 241.804688 83.640625 243.609375 84.242188 C 245.382812 84.867188 246.578125 85.796875 247.199219 87.023438 C 243.933594 98.074219 239.660156 113.71875 234.375 133.960938 C 229.085938 154.230469 225.511719 167.847656 223.644531 174.800781 C 220.226562 188.714844 217.039062 201.0625 214.085938 211.835938 C 211.90625 219.339844 208.488281 223.089844 203.824219 223.089844 C 189.519531 223.089844 182.367188 220.160156 182.367188 214.292969 C 182.367188 216.613281 186.410156 201.199219 194.496094 168.050781 L 198.691406 150.453125 L 152.285156 213.472656 C 149.796875 216.203125 146.144531 217.566406 141.324219 217.566406 C 137.28125 217.566406 133.519531 216.679688 130.035156 214.90625 C 126.523438 213.132812 125 211.359375 125.464844 209.585938 L 112.640625 143.496094 L 93.515625 211.222656 C 92.429688 215.179688 90.765625 217.839844 88.527344 219.203125 C 86.253906 220.566406 82.011719 221.25 75.792969 221.25 C 70.972656 221.25 67.445312 220.539062 65.203125 219.121094 C 62.933594 217.675781 61.800781 215.246094 61.800781 211.835938 C 61.800781 210.335938 62.035156 208.90625 62.5 207.539062 L 94.449219 96.84375 C 96.160156 90.84375 97.992188 86.847656 99.953125 84.855469 C 101.878906 82.890625 105.410156 81.910156 110.539062 81.910156 C 114.738281 81.910156 118.46875 82.316406 121.734375 83.136719 C 125 83.953125 126.710938 85.183594 126.863281 86.820312 L 126.863281 87.230469 L 145.523438 188.921875 C 152.207031 179.507812 163.214844 163.957031 178.542969 142.269531 C 193.84375 120.582031 205.84375 103.664062 214.550781 91.527344 C 216.105469 88.117188 217.863281 85.890625 219.820312 84.855469 C 221.75 83.847656 223.988281 83.136719 226.539062 82.726562 C 229.117188 82.316406 231.03125 82.046875 232.273438 81.910156 Z M 182.367188 214.292969 Z M 182.367188 214.292969 "/>
</g>
</g>
</svg>
